<svg width="800px" height="800px" viewBox="0 0 24 24" fill="none" xmlns="http://www.w3.org/2000/svg">
  <path opacity="1" d="M12 22C7.28595 22 4.92893 22 3.46447 20.5355C2 19.0711 2 16.714 2 12C2 7.28595 2 4.92893 3.46447 3.46447C4.92893 2 7.28595 2 12 2C16.714 2 19.0711 2 20.5355 3.46447C22 4.92893 22 7.28595 22 12C22 16.714 22 19.0711 20.5355 20.5355C19.0711 22 16.714 22 12 22Z" fill="#8f0709"></path>
  <path d="M 7.57 7.339 C 8.01 6.899 8.722 6.899 9.161 7.339 L 12.116 10.293 L 15.071 7.339 C 15.51 6.899 16.222 6.899 16.661 7.339 C 17.101 7.778 17.101 8.49 16.661 8.93 L 13.707 11.884 L 16.661 14.839 C 17.101 15.278 17.101 15.99 16.661 16.43 C 16.222 16.869 15.51 16.869 15.07 16.43 L 12.116 13.475 L 9.162 16.43 C 8.722 16.869 8.01 16.869 7.571 16.43 C 7.131 15.99 7.131 15.278 7.571 14.839 L 10.525 11.884 L 7.57 8.93 C 7.131 8.49 7.131 7.778 7.57 7.339 Z" fill="#cca300"></path>
</svg>